<mxfile host="app.diagrams.net" agent="Mozilla/5.0 (X11; Linux x86_64) AppleWebKit/537.36 (KHTML, like Gecko) Chrome/133.0.0.0 Safari/537.36" version="26.2.14">
  <diagram name="Page-1" id="5f0bae14-7c28-e335-631c-24af17079c00">
    <mxGraphModel dx="2084" dy="1086" grid="1" gridSize="10" guides="1" tooltips="1" connect="1" arrows="1" fold="1" page="1" pageScale="1" pageWidth="1100" pageHeight="850" background="none" math="0" shadow="0">
      <root>
        <mxCell id="0" />
        <mxCell id="1" parent="0" />
        <mxCell id="39150e848f15840c-1" value="Mobile App" style="verticalAlign=top;align=left;spacingTop=8;spacingLeft=2;spacingRight=12;shape=cube;size=10;direction=south;fontStyle=4;html=1;rounded=0;shadow=0;comic=0;labelBackgroundColor=none;strokeWidth=1;fontFamily=Verdana;fontSize=12" parent="1" vertex="1">
          <mxGeometry x="90" y="660" width="1870" height="530" as="geometry" />
        </mxCell>
        <mxCell id="39150e848f15840c-2" value="Admin Dashboard (Conditional Access)" style="verticalAlign=top;align=left;spacingTop=8;spacingLeft=2;spacingRight=12;shape=cube;size=10;direction=south;fontStyle=4;html=1;rounded=0;shadow=0;comic=0;labelBackgroundColor=none;strokeWidth=1;fontFamily=Verdana;fontSize=12" parent="1" vertex="1">
          <mxGeometry x="810" y="820" width="890" height="290" as="geometry" />
        </mxCell>
        <mxCell id="39150e848f15840c-3" value="Backend Services (Firebase)" style="verticalAlign=top;align=left;spacingTop=8;spacingLeft=2;spacingRight=12;shape=cube;size=10;direction=south;fontStyle=4;html=1;rounded=0;shadow=0;comic=0;labelBackgroundColor=none;strokeWidth=1;fontFamily=Verdana;fontSize=12" parent="1" vertex="1">
          <mxGeometry x="170" y="1420" width="970" height="200" as="geometry" />
        </mxCell>
        <mxCell id="39150e848f15840c-5" value="User Authentication" style="shape=component;align=left;spacingLeft=36;rounded=0;shadow=0;comic=0;labelBackgroundColor=none;strokeWidth=1;fontFamily=Verdana;fontSize=12;html=1;" parent="1" vertex="1">
          <mxGeometry x="100" y="760" width="150" height="70" as="geometry" />
        </mxCell>
        <mxCell id="39150e848f15840c-7" value="Approval System" style="shape=component;align=left;spacingLeft=36;rounded=0;shadow=0;comic=0;labelBackgroundColor=none;strokeWidth=1;fontFamily=Verdana;fontSize=12;html=1;" parent="1" vertex="1">
          <mxGeometry x="840" y="890" width="128.75" height="60" as="geometry" />
        </mxCell>
        <mxCell id="39150e848f15840c-10" value="Firebase Auth" style="shape=component;align=left;spacingLeft=36;rounded=0;shadow=0;comic=0;labelBackgroundColor=none;strokeWidth=1;fontFamily=Verdana;fontSize=12;html=1;" parent="1" vertex="1">
          <mxGeometry x="200" y="1510" width="120" height="60" as="geometry" />
        </mxCell>
        <mxCell id="dZJkDk9DnacKiRY1DNjU-3" value="Program Browser" style="shape=component;align=left;spacingLeft=36;rounded=0;shadow=0;comic=0;labelBackgroundColor=none;strokeWidth=1;fontFamily=Verdana;fontSize=12;html=1;" vertex="1" parent="1">
          <mxGeometry x="250" y="865" width="150" height="60" as="geometry" />
        </mxCell>
        <mxCell id="dZJkDk9DnacKiRY1DNjU-4" value="Testimony Viewer" style="shape=component;align=left;spacingLeft=36;rounded=0;shadow=0;comic=0;labelBackgroundColor=none;strokeWidth=1;fontFamily=Verdana;fontSize=12;html=1;" vertex="1" parent="1">
          <mxGeometry x="1760" y="770" width="150" height="60" as="geometry" />
        </mxCell>
        <mxCell id="dZJkDk9DnacKiRY1DNjU-5" value="Notification Module" style="shape=component;align=left;spacingLeft=36;rounded=0;shadow=0;comic=0;labelBackgroundColor=none;strokeWidth=1;fontFamily=Verdana;fontSize=12;html=1;" vertex="1" parent="1">
          <mxGeometry x="420" y="910" width="150" height="60" as="geometry" />
        </mxCell>
        <mxCell id="dZJkDk9DnacKiRY1DNjU-6" value="Audio Player" style="shape=component;align=left;spacingLeft=36;rounded=0;shadow=0;comic=0;labelBackgroundColor=none;strokeWidth=1;fontFamily=Verdana;fontSize=12;html=1;" vertex="1" parent="1">
          <mxGeometry x="610" y="940" width="150" height="60" as="geometry" />
        </mxCell>
        <mxCell id="dZJkDk9DnacKiRY1DNjU-7" value="Testimony Management" style="shape=component;align=left;spacingLeft=36;rounded=0;shadow=0;comic=0;labelBackgroundColor=none;strokeWidth=1;fontFamily=Verdana;fontSize=12;html=1;" vertex="1" parent="1">
          <mxGeometry x="968.75" y="970" width="170" height="60" as="geometry" />
        </mxCell>
        <mxCell id="dZJkDk9DnacKiRY1DNjU-8" value="Schedule Manager" style="shape=component;align=left;spacingLeft=36;rounded=0;shadow=0;comic=0;labelBackgroundColor=none;strokeWidth=1;fontFamily=Verdana;fontSize=12;html=1;" vertex="1" parent="1">
          <mxGeometry x="1340" y="970" width="150" height="60" as="geometry" />
        </mxCell>
        <mxCell id="dZJkDk9DnacKiRY1DNjU-9" value="Support Page Editor" style="shape=component;align=left;spacingLeft=36;rounded=0;shadow=0;comic=0;labelBackgroundColor=none;strokeWidth=1;fontFamily=Verdana;fontSize=12;html=1;" vertex="1" parent="1">
          <mxGeometry x="1505" y="890" width="150" height="60" as="geometry" />
        </mxCell>
        <mxCell id="dZJkDk9DnacKiRY1DNjU-10" value="Announcement Manager" style="shape=component;align=left;spacingLeft=36;rounded=0;shadow=0;comic=0;labelBackgroundColor=none;strokeWidth=1;fontFamily=Verdana;fontSize=12;html=1;" vertex="1" parent="1">
          <mxGeometry x="1160" y="1010" width="160" height="60" as="geometry" />
        </mxCell>
        <mxCell id="dZJkDk9DnacKiRY1DNjU-11" value="User" style="shape=umlActor;verticalLabelPosition=bottom;verticalAlign=top;html=1;" vertex="1" parent="1">
          <mxGeometry x="1028.75" y="360" width="30" height="60" as="geometry" />
        </mxCell>
        <mxCell id="dZJkDk9DnacKiRY1DNjU-12" value="Admin" style="shape=umlActor;verticalLabelPosition=bottom;verticalAlign=top;html=1;" vertex="1" parent="1">
          <mxGeometry x="1180" y="480" width="30" height="60" as="geometry" />
        </mxCell>
        <mxCell id="dZJkDk9DnacKiRY1DNjU-14" value="Extends" style="endArrow=block;endSize=16;endFill=0;html=1;rounded=0;entryX=0.5;entryY=0.5;entryDx=0;entryDy=0;entryPerimeter=0;exitX=0.5;exitY=0.5;exitDx=0;exitDy=0;exitPerimeter=0;" edge="1" parent="1" source="dZJkDk9DnacKiRY1DNjU-12" target="dZJkDk9DnacKiRY1DNjU-11">
          <mxGeometry width="160" relative="1" as="geometry">
            <mxPoint x="1163.75" y="580" as="sourcePoint" />
            <mxPoint x="1323.75" y="580" as="targetPoint" />
          </mxGeometry>
        </mxCell>
        <mxCell id="dZJkDk9DnacKiRY1DNjU-15" value="Firebase Cloud Messaging" style="shape=component;align=left;spacingLeft=36;rounded=0;shadow=0;comic=0;labelBackgroundColor=none;strokeWidth=1;fontFamily=Verdana;fontSize=12;html=1;" vertex="1" parent="1">
          <mxGeometry x="340" y="1510" width="170" height="60" as="geometry" />
        </mxCell>
        <mxCell id="dZJkDk9DnacKiRY1DNjU-16" value="Firebase Storage" style="shape=component;align=left;spacingLeft=36;rounded=0;shadow=0;comic=0;labelBackgroundColor=none;strokeWidth=1;fontFamily=Verdana;fontSize=12;html=1;" vertex="1" parent="1">
          <mxGeometry x="530" y="1510" width="170" height="60" as="geometry" />
        </mxCell>
        <mxCell id="dZJkDk9DnacKiRY1DNjU-17" value="Firebase Cloud Function" style="shape=component;align=left;spacingLeft=36;rounded=0;shadow=0;comic=0;labelBackgroundColor=none;strokeWidth=1;fontFamily=Verdana;fontSize=12;html=1;" vertex="1" parent="1">
          <mxGeometry x="720" y="1510" width="170" height="60" as="geometry" />
        </mxCell>
        <mxCell id="dZJkDk9DnacKiRY1DNjU-18" value="Firebase Database" style="shape=component;align=left;spacingLeft=36;rounded=0;shadow=0;comic=0;labelBackgroundColor=none;strokeWidth=1;fontFamily=Verdana;fontSize=12;html=1;" vertex="1" parent="1">
          <mxGeometry x="910" y="1510" width="170" height="60" as="geometry" />
        </mxCell>
        <mxCell id="dZJkDk9DnacKiRY1DNjU-19" value="External Services" style="verticalAlign=top;align=left;spacingTop=8;spacingLeft=2;spacingRight=12;shape=cube;size=10;direction=south;fontStyle=4;html=1;rounded=0;shadow=0;comic=0;labelBackgroundColor=none;strokeWidth=1;fontFamily=Verdana;fontSize=12" vertex="1" parent="1">
          <mxGeometry x="1270" y="1420" width="560" height="200" as="geometry" />
        </mxCell>
        <mxCell id="dZJkDk9DnacKiRY1DNjU-20" value="Google Meet Link" style="shape=component;align=left;spacingLeft=36;rounded=0;shadow=0;comic=0;labelBackgroundColor=none;strokeWidth=1;fontFamily=Verdana;fontSize=12;html=1;" vertex="1" parent="1">
          <mxGeometry x="1360" y="1510" width="150" height="60" as="geometry" />
        </mxCell>
        <mxCell id="dZJkDk9DnacKiRY1DNjU-21" value="WhatsApp Chat Link" style="shape=component;align=left;spacingLeft=36;rounded=0;shadow=0;comic=0;labelBackgroundColor=none;strokeWidth=1;fontFamily=Verdana;fontSize=12;html=1;" vertex="1" parent="1">
          <mxGeometry x="1590" y="1510" width="170" height="60" as="geometry" />
        </mxCell>
        <mxCell id="dZJkDk9DnacKiRY1DNjU-29" value="" style="rounded=0;orthogonalLoop=1;jettySize=auto;html=1;endArrow=halfCircle;endFill=0;endSize=6;strokeWidth=1;sketch=0;exitX=0.005;exitY=0.651;exitDx=0;exitDy=0;exitPerimeter=0;" edge="1" target="dZJkDk9DnacKiRY1DNjU-31" parent="1" source="39150e848f15840c-1">
          <mxGeometry relative="1" as="geometry">
            <mxPoint x="640" y="305" as="sourcePoint" />
          </mxGeometry>
        </mxCell>
        <mxCell id="dZJkDk9DnacKiRY1DNjU-30" value="" style="rounded=0;orthogonalLoop=1;jettySize=auto;html=1;endArrow=oval;endFill=0;sketch=0;sourcePerimeterSpacing=0;targetPerimeterSpacing=0;endSize=10;" edge="1" target="dZJkDk9DnacKiRY1DNjU-31" parent="1" source="dZJkDk9DnacKiRY1DNjU-11">
          <mxGeometry relative="1" as="geometry">
            <mxPoint x="600" y="305" as="sourcePoint" />
          </mxGeometry>
        </mxCell>
        <mxCell id="dZJkDk9DnacKiRY1DNjU-31" value="" style="ellipse;whiteSpace=wrap;html=1;align=center;aspect=fixed;fillColor=none;strokeColor=none;resizable=0;perimeter=centerPerimeter;rotatable=0;allowArrows=0;points=[];outlineConnect=1;" vertex="1" parent="1">
          <mxGeometry x="880" y="520" width="10" height="10" as="geometry" />
        </mxCell>
        <mxCell id="dZJkDk9DnacKiRY1DNjU-32" value="" style="rounded=0;orthogonalLoop=1;jettySize=auto;html=1;endArrow=halfCircle;endFill=0;endSize=6;strokeWidth=1;sketch=0;exitX=0;exitY=0;exitDx=0;exitDy=440;exitPerimeter=0;" edge="1" target="dZJkDk9DnacKiRY1DNjU-34" parent="1" source="39150e848f15840c-2">
          <mxGeometry relative="1" as="geometry">
            <mxPoint x="870" y="615" as="sourcePoint" />
          </mxGeometry>
        </mxCell>
        <mxCell id="dZJkDk9DnacKiRY1DNjU-33" value="" style="rounded=0;orthogonalLoop=1;jettySize=auto;html=1;endArrow=oval;endFill=0;sketch=0;sourcePerimeterSpacing=0;targetPerimeterSpacing=0;endSize=10;" edge="1" target="dZJkDk9DnacKiRY1DNjU-34" parent="1" source="dZJkDk9DnacKiRY1DNjU-12">
          <mxGeometry relative="1" as="geometry">
            <mxPoint x="830" y="615" as="sourcePoint" />
          </mxGeometry>
        </mxCell>
        <mxCell id="dZJkDk9DnacKiRY1DNjU-34" value="" style="ellipse;whiteSpace=wrap;html=1;align=center;aspect=fixed;fillColor=none;strokeColor=none;resizable=0;perimeter=centerPerimeter;rotatable=0;allowArrows=0;points=[];outlineConnect=1;" vertex="1" parent="1">
          <mxGeometry x="1300" y="590" width="10" height="10" as="geometry" />
        </mxCell>
        <mxCell id="dZJkDk9DnacKiRY1DNjU-35" value="Interacts with user space" style="text;align=center;fontStyle=1;verticalAlign=middle;spacingLeft=3;spacingRight=3;strokeColor=none;rotatable=0;points=[[0,0.5],[1,0.5]];portConstraint=eastwest;html=1;" vertex="1" parent="1">
          <mxGeometry x="740" y="490" width="150" height="40" as="geometry" />
        </mxCell>
        <mxCell id="dZJkDk9DnacKiRY1DNjU-36" value="Interacts with Admins Dashboard" style="text;align=center;fontStyle=1;verticalAlign=middle;spacingLeft=3;spacingRight=3;strokeColor=none;rotatable=0;points=[[0,0.5],[1,0.5]];portConstraint=eastwest;html=1;" vertex="1" parent="1">
          <mxGeometry x="1320" y="575" width="200" height="40" as="geometry" />
        </mxCell>
        <mxCell id="dZJkDk9DnacKiRY1DNjU-37" value="" style="rounded=0;orthogonalLoop=1;jettySize=auto;html=1;endArrow=halfCircle;endFill=0;endSize=6;strokeWidth=1;sketch=0;exitX=0.5;exitY=0;exitDx=0;exitDy=0;" edge="1" target="dZJkDk9DnacKiRY1DNjU-39" parent="1" source="39150e848f15840c-10">
          <mxGeometry relative="1" as="geometry">
            <mxPoint x="730" y="1205" as="sourcePoint" />
          </mxGeometry>
        </mxCell>
        <mxCell id="dZJkDk9DnacKiRY1DNjU-38" value="" style="rounded=0;orthogonalLoop=1;jettySize=auto;html=1;endArrow=oval;endFill=0;sketch=0;sourcePerimeterSpacing=0;targetPerimeterSpacing=0;endSize=10;exitX=0.5;exitY=1;exitDx=0;exitDy=0;" edge="1" target="dZJkDk9DnacKiRY1DNjU-39" parent="1" source="39150e848f15840c-5">
          <mxGeometry relative="1" as="geometry">
            <mxPoint x="690" y="1205" as="sourcePoint" />
          </mxGeometry>
        </mxCell>
        <mxCell id="dZJkDk9DnacKiRY1DNjU-39" value="" style="ellipse;whiteSpace=wrap;html=1;align=center;aspect=fixed;fillColor=none;strokeColor=none;resizable=0;perimeter=centerPerimeter;rotatable=0;allowArrows=0;points=[];outlineConnect=1;" vertex="1" parent="1">
          <mxGeometry x="220" y="1250" width="10" height="10" as="geometry" />
        </mxCell>
        <mxCell id="dZJkDk9DnacKiRY1DNjU-42" value="" style="rounded=0;orthogonalLoop=1;jettySize=auto;html=1;endArrow=halfCircle;endFill=0;endSize=6;strokeWidth=1;sketch=0;exitX=0.5;exitY=0;exitDx=0;exitDy=0;" edge="1" target="dZJkDk9DnacKiRY1DNjU-44" parent="1" source="dZJkDk9DnacKiRY1DNjU-15">
          <mxGeometry relative="1" as="geometry">
            <mxPoint x="790" y="1155" as="sourcePoint" />
          </mxGeometry>
        </mxCell>
        <mxCell id="dZJkDk9DnacKiRY1DNjU-43" value="" style="rounded=0;orthogonalLoop=1;jettySize=auto;html=1;endArrow=oval;endFill=0;sketch=0;sourcePerimeterSpacing=0;targetPerimeterSpacing=0;endSize=10;exitX=0.5;exitY=1;exitDx=0;exitDy=0;" edge="1" target="dZJkDk9DnacKiRY1DNjU-44" parent="1" source="dZJkDk9DnacKiRY1DNjU-5">
          <mxGeometry relative="1" as="geometry">
            <mxPoint x="750" y="1155" as="sourcePoint" />
          </mxGeometry>
        </mxCell>
        <mxCell id="dZJkDk9DnacKiRY1DNjU-44" value="" style="ellipse;whiteSpace=wrap;html=1;align=center;aspect=fixed;fillColor=none;strokeColor=none;resizable=0;perimeter=centerPerimeter;rotatable=0;allowArrows=0;points=[];outlineConnect=1;" vertex="1" parent="1">
          <mxGeometry x="460" y="1250" width="10" height="10" as="geometry" />
        </mxCell>
        <mxCell id="dZJkDk9DnacKiRY1DNjU-45" value="" style="rounded=0;orthogonalLoop=1;jettySize=auto;html=1;endArrow=halfCircle;endFill=0;endSize=6;strokeWidth=1;sketch=0;exitX=0.5;exitY=0;exitDx=0;exitDy=0;" edge="1" target="dZJkDk9DnacKiRY1DNjU-47" parent="1" source="dZJkDk9DnacKiRY1DNjU-16">
          <mxGeometry relative="1" as="geometry">
            <mxPoint x="790" y="1155" as="sourcePoint" />
          </mxGeometry>
        </mxCell>
        <mxCell id="dZJkDk9DnacKiRY1DNjU-46" value="" style="rounded=0;orthogonalLoop=1;jettySize=auto;html=1;endArrow=oval;endFill=0;sketch=0;sourcePerimeterSpacing=0;targetPerimeterSpacing=0;endSize=10;exitX=0.5;exitY=1;exitDx=0;exitDy=0;" edge="1" target="dZJkDk9DnacKiRY1DNjU-47" parent="1" source="dZJkDk9DnacKiRY1DNjU-6">
          <mxGeometry relative="1" as="geometry">
            <mxPoint x="750" y="1155" as="sourcePoint" />
          </mxGeometry>
        </mxCell>
        <mxCell id="dZJkDk9DnacKiRY1DNjU-47" value="" style="ellipse;whiteSpace=wrap;html=1;align=center;aspect=fixed;fillColor=none;strokeColor=none;resizable=0;perimeter=centerPerimeter;rotatable=0;allowArrows=0;points=[];outlineConnect=1;" vertex="1" parent="1">
          <mxGeometry x="640" y="1250" width="10" height="10" as="geometry" />
        </mxCell>
        <mxCell id="dZJkDk9DnacKiRY1DNjU-48" value="" style="rounded=0;orthogonalLoop=1;jettySize=auto;html=1;endArrow=halfCircle;endFill=0;endSize=6;strokeWidth=1;sketch=0;exitX=0.5;exitY=0;exitDx=0;exitDy=0;" edge="1" target="dZJkDk9DnacKiRY1DNjU-50" parent="1" source="dZJkDk9DnacKiRY1DNjU-17">
          <mxGeometry relative="1" as="geometry">
            <mxPoint x="810" y="1215" as="sourcePoint" />
          </mxGeometry>
        </mxCell>
        <mxCell id="dZJkDk9DnacKiRY1DNjU-49" value="" style="rounded=0;orthogonalLoop=1;jettySize=auto;html=1;endArrow=oval;endFill=0;sketch=0;sourcePerimeterSpacing=0;targetPerimeterSpacing=0;endSize=10;exitX=0.5;exitY=1;exitDx=0;exitDy=0;" edge="1" target="dZJkDk9DnacKiRY1DNjU-50" parent="1" source="39150e848f15840c-7">
          <mxGeometry relative="1" as="geometry">
            <mxPoint x="770" y="1215" as="sourcePoint" />
          </mxGeometry>
        </mxCell>
        <mxCell id="dZJkDk9DnacKiRY1DNjU-50" value="" style="ellipse;whiteSpace=wrap;html=1;align=center;aspect=fixed;fillColor=none;strokeColor=none;resizable=0;perimeter=centerPerimeter;rotatable=0;allowArrows=0;points=[];outlineConnect=1;" vertex="1" parent="1">
          <mxGeometry x="870" y="1250" width="10" height="10" as="geometry" />
        </mxCell>
        <mxCell id="dZJkDk9DnacKiRY1DNjU-54" value="" style="rounded=0;orthogonalLoop=1;jettySize=auto;html=1;endArrow=halfCircle;endFill=0;endSize=6;strokeWidth=1;sketch=0;exitX=0.75;exitY=0;exitDx=0;exitDy=0;" edge="1" target="dZJkDk9DnacKiRY1DNjU-56" parent="1" source="dZJkDk9DnacKiRY1DNjU-17">
          <mxGeometry relative="1" as="geometry">
            <mxPoint x="1570" y="1215" as="sourcePoint" />
          </mxGeometry>
        </mxCell>
        <mxCell id="dZJkDk9DnacKiRY1DNjU-55" value="" style="rounded=0;orthogonalLoop=1;jettySize=auto;html=1;endArrow=oval;endFill=0;sketch=0;sourcePerimeterSpacing=0;targetPerimeterSpacing=0;endSize=10;exitX=0.5;exitY=1;exitDx=0;exitDy=0;" edge="1" target="dZJkDk9DnacKiRY1DNjU-56" parent="1" source="dZJkDk9DnacKiRY1DNjU-7">
          <mxGeometry relative="1" as="geometry">
            <mxPoint x="1530" y="1215" as="sourcePoint" />
          </mxGeometry>
        </mxCell>
        <mxCell id="dZJkDk9DnacKiRY1DNjU-56" value="" style="ellipse;whiteSpace=wrap;html=1;align=center;aspect=fixed;fillColor=none;strokeColor=none;resizable=0;perimeter=centerPerimeter;rotatable=0;allowArrows=0;points=[];outlineConnect=1;" vertex="1" parent="1">
          <mxGeometry x="958.75" y="1270" width="10" height="10" as="geometry" />
        </mxCell>
        <mxCell id="dZJkDk9DnacKiRY1DNjU-57" value="" style="rounded=0;orthogonalLoop=1;jettySize=auto;html=1;endArrow=halfCircle;endFill=0;endSize=6;strokeWidth=1;sketch=0;exitX=0.5;exitY=0;exitDx=0;exitDy=0;" edge="1" target="dZJkDk9DnacKiRY1DNjU-59" parent="1" source="dZJkDk9DnacKiRY1DNjU-18">
          <mxGeometry relative="1" as="geometry">
            <mxPoint x="1270" y="1215" as="sourcePoint" />
          </mxGeometry>
        </mxCell>
        <mxCell id="dZJkDk9DnacKiRY1DNjU-58" value="" style="rounded=0;orthogonalLoop=1;jettySize=auto;html=1;endArrow=oval;endFill=0;sketch=0;sourcePerimeterSpacing=0;targetPerimeterSpacing=0;endSize=10;exitX=0.75;exitY=1;exitDx=0;exitDy=0;" edge="1" target="dZJkDk9DnacKiRY1DNjU-59" parent="1" source="dZJkDk9DnacKiRY1DNjU-7">
          <mxGeometry relative="1" as="geometry">
            <mxPoint x="1230" y="1215" as="sourcePoint" />
          </mxGeometry>
        </mxCell>
        <mxCell id="dZJkDk9DnacKiRY1DNjU-59" value="" style="ellipse;whiteSpace=wrap;html=1;align=center;aspect=fixed;fillColor=none;strokeColor=none;resizable=0;perimeter=centerPerimeter;rotatable=0;allowArrows=0;points=[];outlineConnect=1;" vertex="1" parent="1">
          <mxGeometry x="1038.75" y="1280" width="10" height="10" as="geometry" />
        </mxCell>
        <mxCell id="dZJkDk9DnacKiRY1DNjU-60" value="" style="rounded=0;orthogonalLoop=1;jettySize=auto;html=1;endArrow=halfCircle;endFill=0;endSize=6;strokeWidth=1;sketch=0;exitX=0.5;exitY=0;exitDx=0;exitDy=0;" edge="1" target="dZJkDk9DnacKiRY1DNjU-62" parent="1" source="dZJkDk9DnacKiRY1DNjU-20">
          <mxGeometry relative="1" as="geometry">
            <mxPoint x="1270" y="1215" as="sourcePoint" />
          </mxGeometry>
        </mxCell>
        <mxCell id="dZJkDk9DnacKiRY1DNjU-61" value="" style="rounded=0;orthogonalLoop=1;jettySize=auto;html=1;endArrow=oval;endFill=0;sketch=0;sourcePerimeterSpacing=0;targetPerimeterSpacing=0;endSize=10;exitX=0.5;exitY=1;exitDx=0;exitDy=0;" edge="1" target="dZJkDk9DnacKiRY1DNjU-62" parent="1" source="dZJkDk9DnacKiRY1DNjU-8">
          <mxGeometry relative="1" as="geometry">
            <mxPoint x="1230" y="1215" as="sourcePoint" />
          </mxGeometry>
        </mxCell>
        <mxCell id="dZJkDk9DnacKiRY1DNjU-62" value="" style="ellipse;whiteSpace=wrap;html=1;align=center;aspect=fixed;fillColor=none;strokeColor=none;resizable=0;perimeter=centerPerimeter;rotatable=0;allowArrows=0;points=[];outlineConnect=1;" vertex="1" parent="1">
          <mxGeometry x="1440" y="1270" width="10" height="10" as="geometry" />
        </mxCell>
        <mxCell id="dZJkDk9DnacKiRY1DNjU-63" value="" style="rounded=0;orthogonalLoop=1;jettySize=auto;html=1;endArrow=halfCircle;endFill=0;endSize=6;strokeWidth=1;sketch=0;exitX=0.75;exitY=0;exitDx=0;exitDy=0;" edge="1" target="dZJkDk9DnacKiRY1DNjU-65" parent="1" source="dZJkDk9DnacKiRY1DNjU-18">
          <mxGeometry relative="1" as="geometry">
            <mxPoint x="1270" y="1215" as="sourcePoint" />
          </mxGeometry>
        </mxCell>
        <mxCell id="dZJkDk9DnacKiRY1DNjU-64" value="" style="rounded=0;orthogonalLoop=1;jettySize=auto;html=1;endArrow=oval;endFill=0;sketch=0;sourcePerimeterSpacing=0;targetPerimeterSpacing=0;endSize=10;exitX=0.5;exitY=1;exitDx=0;exitDy=0;" edge="1" target="dZJkDk9DnacKiRY1DNjU-65" parent="1" source="dZJkDk9DnacKiRY1DNjU-10">
          <mxGeometry relative="1" as="geometry">
            <mxPoint x="1230" y="1215" as="sourcePoint" />
          </mxGeometry>
        </mxCell>
        <mxCell id="dZJkDk9DnacKiRY1DNjU-65" value="" style="ellipse;whiteSpace=wrap;html=1;align=center;aspect=fixed;fillColor=none;strokeColor=none;resizable=0;perimeter=centerPerimeter;rotatable=0;allowArrows=0;points=[];outlineConnect=1;" vertex="1" parent="1">
          <mxGeometry x="1138.75" y="1270" width="10" height="10" as="geometry" />
        </mxCell>
        <mxCell id="dZJkDk9DnacKiRY1DNjU-66" value="" style="rounded=0;orthogonalLoop=1;jettySize=auto;html=1;endArrow=halfCircle;endFill=0;endSize=6;strokeWidth=1;sketch=0;exitX=0.5;exitY=0;exitDx=0;exitDy=0;" edge="1" target="dZJkDk9DnacKiRY1DNjU-68" parent="1" source="dZJkDk9DnacKiRY1DNjU-21">
          <mxGeometry relative="1" as="geometry">
            <mxPoint x="1690" y="1285" as="sourcePoint" />
          </mxGeometry>
        </mxCell>
        <mxCell id="dZJkDk9DnacKiRY1DNjU-67" value="" style="rounded=0;orthogonalLoop=1;jettySize=auto;html=1;endArrow=oval;endFill=0;sketch=0;sourcePerimeterSpacing=0;targetPerimeterSpacing=0;endSize=10;exitX=0.5;exitY=1;exitDx=0;exitDy=0;" edge="1" target="dZJkDk9DnacKiRY1DNjU-68" parent="1" source="dZJkDk9DnacKiRY1DNjU-4">
          <mxGeometry relative="1" as="geometry">
            <mxPoint x="1650" y="1285" as="sourcePoint" />
          </mxGeometry>
        </mxCell>
        <mxCell id="dZJkDk9DnacKiRY1DNjU-68" value="" style="ellipse;whiteSpace=wrap;html=1;align=center;aspect=fixed;fillColor=none;strokeColor=none;resizable=0;perimeter=centerPerimeter;rotatable=0;allowArrows=0;points=[];outlineConnect=1;" vertex="1" parent="1">
          <mxGeometry x="1730" y="1260" width="10" height="10" as="geometry" />
        </mxCell>
        <mxCell id="dZJkDk9DnacKiRY1DNjU-69" value="&lt;font style=&quot;font-size: 21px;&quot;&gt;Updated Component Diagram – System Modules and External APIs (Integrated&amp;nbsp;Admin Dashboard)&lt;/font&gt;" style="text;align=center;fontStyle=1;verticalAlign=middle;spacingLeft=3;spacingRight=3;strokeColor=none;rotatable=0;points=[[0,0.5],[1,0.5]];portConstraint=eastwest;html=1;" vertex="1" parent="1">
          <mxGeometry x="70" y="180" width="1070" height="70" as="geometry" />
        </mxCell>
      </root>
    </mxGraphModel>
  </diagram>
</mxfile>
